# xmcd
#
# Track frame offsets: 
#        150
#        14430
#        28648
#        56095
#
# Disc length: 921 seconds
#
# Revision: 1
# Processed by: cddbd v1.5.2PL0 Copyright (c) Steve Scherf et al.
# Submitted via: ExactAudioCopy v0.99pb5
#
DISCID=2c039704
DTITLE=Peter Schilling - Weit Weg
DYEAR=2004
DGENRE=Pop
TTITLE0=Weit Weg (Single Version) 
TTITLE1=Weit Weg (Single Version Instrumental) 
TTITLE2=Weit Weg (Extended Version) 
TTITLE3=Alarmstufe Rot 
EXTD=
EXTT0=
EXTT1=
EXTT2=
EXTT3=
PLAYORDER=
